<?xml version="1.0" encoding="UTF-8" standalone="no"?>
<!-- Created with Inkscape (http://www.inkscape.org/) -->

<svg
   xmlns:dc="http://purl.org/dc/elements/1.1/"
   xmlns:cc="http://creativecommons.org/ns#"
   xmlns:rdf="http://www.w3.org/1999/02/22-rdf-syntax-ns#"
   xmlns:svg="http://www.w3.org/2000/svg"
   xmlns="http://www.w3.org/2000/svg"
   xmlns:sodipodi="http://sodipodi.sourceforge.net/DTD/sodipodi-0.dtd"
   xmlns:inkscape="http://www.inkscape.org/namespaces/inkscape"
   width="24"
   height="24"
   viewBox="0 0 24 24"
   version="1.1"
   id="svg5"
   inkscape:version="0.92.4 (5da689c313, 2019-01-14)"
   sodipodi:docname="dbh_24px.svg"
   xml:space="preserve"
   inkscape:export-filename="dbh_24px.png"
   inkscape:export-xdpi="96"
   inkscape:export-ydpi="96"><title
     id="title927">Dbh</title><sodipodi:namedview
     id="namedview7"
     pagecolor="#ffffff"
     bordercolor="#000000"
     borderopacity="0.25"
     inkscape:showpageshadow="2"
     inkscape:pageopacity="0.0"
     inkscape:pagecheckerboard="false"
     inkscape:deskcolor="#d1d1d1"
     inkscape:document-units="px"
     showgrid="true"
     inkscape:zoom="17.270834"
     inkscape:cx="12.318244"
     inkscape:cy="13.451726"
     inkscape:window-width="2144"
     inkscape:window-height="1357"
     inkscape:window-x="2100"
     inkscape:window-y="0"
     inkscape:window-maximized="0"
     inkscape:current-layer="layer3"
     inkscape:snap-global="false"><inkscape:grid
       type="xygrid"
       id="grid16"
       originx="0"
       originy="0"
       empspacing="2"
       spacingx="0.5"
       spacingy="0.5"
       dotted="false"
       color="#0099e5"
       opacity="0.10196078"
       empcolor="#0099e5"
       empopacity="0.4" /></sodipodi:namedview><defs
     id="defs2" /><g
     inkscape:groupmode="layer"
     id="layer3"
     inkscape:label="Vector"
     style="display:inline"><circle
       style="fill:none;stroke:#555753;stroke-width:1;stroke-linejoin:round;stroke-miterlimit:4;stroke-dasharray:none;stroke-dashoffset:1;paint-order:fill markers stroke"
       id="path186"
       cx="12"
       cy="12"
       r="9.5" /><g
       aria-label="DBH"
       style="font-style:normal;font-weight:normal;font-size:5.33333349px;line-height:1.25;font-family:sans-serif;letter-spacing:0px;word-spacing:0px;fill:#000000;fill-opacity:1;stroke:none"
       id="text918"><path
         d="m 8.9140625,12.097656 c 0,0.528646 -0.1158854,1.007813 -0.3476563,1.4375 -0.2291667,0.429687 -0.5351562,0.763021 -0.9179687,1 -0.265625,0.164063 -0.5625,0.282552 -0.890625,0.355469 C 6.4322916,14.963542 6.0026041,15 5.46875,15 H 4 V 9.1835936 h 1.453125 c 0.5677083,0 1.0182292,0.041667 1.3515625,0.125 0.3359375,0.080729 0.6197916,0.1927083 0.8515625,0.3359375 0.3958333,0.2473958 0.7044271,0.5768229 0.9257812,0.9882809 0.2213542,0.411459 0.3320313,0.89974 0.3320313,1.464844 z m -0.8085938,-0.01172 c 0,-0.455729 -0.079427,-0.839843 -0.2382812,-1.152343 C 7.7083333,10.621094 7.4713541,10.375 7.15625,10.195312 6.9270833,10.065104 6.6835937,9.9752602 6.4257812,9.9257811 6.1679687,9.8736978 5.859375,9.8476561 5.5,9.8476561 H 4.7734375 V 14.335937 H 5.5 c 0.3723958,0 0.6966145,-0.02734 0.9726562,-0.08203 0.2786459,-0.05469 0.5338542,-0.156249 0.765625,-0.304687 0.2890625,-0.184896 0.5052084,-0.428386 0.6484375,-0.730469 0.1458333,-0.302083 0.21875,-0.679688 0.21875,-1.132813 z"
         style="font-size:8px"
         id="path920"
         inkscape:connector-curvature="0"
         sodipodi:nodetypes="scccsccsccssscccsccscccss" /><path
         d="m 14.386719,13.210937 c 0,0.289063 -0.05469,0.544271 -0.164062,0.765625 -0.109375,0.221355 -0.256511,0.403646 -0.441407,0.546875 -0.21875,0.171875 -0.459635,0.294271 -0.722656,0.367188 C 12.798177,14.963542 12.466146,15 12.0625,15 H 10 V 9.1835936 h 1.722657 c 0.424479,0 0.742187,0.015625 0.953125,0.046875 0.210937,0.03125 0.41276,0.096354 0.605468,0.1953125 0.213542,0.1119791 0.36849,0.2565104 0.464844,0.4335937 0.09635,0.1744792 0.144531,0.3841152 0.144531,0.6289062 0,0.276042 -0.07031,0.511719 -0.210937,0.707031 -0.140625,0.192709 -0.328125,0.347657 -0.5625,0.464844 v 0.03125 c 0.393229,0.08073 0.703125,0.253906 0.929687,0.519531 0.226563,0.263021 0.339844,0.596355 0.339844,1 z m -1.300781,-2.621093 c 0,-0.140625 -0.02344,-0.259115 -0.07031,-0.355469 -0.04687,-0.09635 -0.122394,-0.174479 -0.226562,-0.2343752 C 12.66667,9.9296873 12.518232,9.8867186 12.343753,9.8710936 12.169274,9.8528643 11.952992,9.8521361 11.695316,9.8437496 h -0.921875 l 0.01447,1.5349344 h 1 c 0.242187,0 0.434896,-0.01172 0.578125,-0.03516 0.143229,-0.02604 0.261567,0.06663 0.383962,-0.0115 0.122396,-0.07813 0.208334,-0.178385 0.257813,-0.300781 0.05209,-0.125 0.07813,-0.272136 0.07813,-0.441406 z m 0.496094,2.652343 c 0,-0.234375 -0.03516,-0.420572 -0.105469,-0.558593 -0.07031,-0.138021 -0.197917,-0.385486 -0.382813,-0.48184 -0.125,-0.06511 -0.277344,-0.106773 -0.457031,-0.125 -0.177083,-0.02083 -0.393247,-0.03429 -0.648437,-0.03125 h -1.214844 v 2.29434 h 1.023437 c 0.338542,0 0.615886,-0.01693 0.832032,-0.05078 0.216145,-0.03646 0.393229,-0.101564 0.53125,-0.195312 0.145833,-0.101563 0.252604,-0.217448 0.320312,-0.347656 0.06771,-0.130209 0.101563,-0.298178 0.101563,-0.503907 z"
         style="font-size:8px"
         id="path922"
         inkscape:connector-curvature="0"
         sodipodi:nodetypes="scccsccssccsccccscsccsccscccccscccsccscccss" /><path
         d="M 20,15 H 19 V 12.022067 H 16 V 15 H 15 V 9 h 1 v 2.030586 h 3 V 9 h 1 z"
         style="font-size:8px"
         id="path924"
         inkscape:connector-curvature="0"
         sodipodi:nodetypes="ccccccccccccc" /></g></g><metadata
     id="metadata2474"><rdf:RDF><cc:Work
         rdf:about=""><dc:title>Dbh</dc:title><dc:creator><cc:Agent><dc:title>Vaclav Bubnik Copyright 2020-present VUKOZ Licence GNU GPL version 3 www.gnu.org/licenses/gpl-3.0.html</dc:title></cc:Agent></dc:creator><dc:date>21 July 2024</dc:date><dc:format>image/svg+xml</dc:format><dc:type
           rdf:resource="http://purl.org/dc/dcmitype/StillImage" /></cc:Work></rdf:RDF></metadata></svg>