<?xml version="1.0" encoding="UTF-8" standalone="no"?>
<!-- Created with Inkscape (http://www.inkscape.org/) -->

<svg
   width="16"
   height="16"
   viewBox="0 0 16 16"
   version="1.1"
   id="svg5"
   inkscape:version="1.2 (dc2aedaf03, 2022-05-15)"
   sodipodi:docname="3dforest.svg"
   xml:space="preserve"
   inkscape:export-filename="3dforest_128px.png"
   inkscape:export-xdpi="768"
   inkscape:export-ydpi="768"
   xmlns:inkscape="http://www.inkscape.org/namespaces/inkscape"
   xmlns:sodipodi="http://sodipodi.sourceforge.net/DTD/sodipodi-0.dtd"
   xmlns:xlink="http://www.w3.org/1999/xlink"
   xmlns="http://www.w3.org/2000/svg"
   xmlns:svg="http://www.w3.org/2000/svg"
   xmlns:rdf="http://www.w3.org/1999/02/22-rdf-syntax-ns#"
   xmlns:cc="http://creativecommons.org/ns#"
   xmlns:dc="http://purl.org/dc/elements/1.1/"><title
     id="title2476">3D Forest Icon</title><sodipodi:namedview
     id="namedview7"
     pagecolor="#ffffff"
     bordercolor="#000000"
     borderopacity="0.25"
     inkscape:showpageshadow="2"
     inkscape:pageopacity="0.0"
     inkscape:pagecheckerboard="false"
     inkscape:deskcolor="#d1d1d1"
     inkscape:document-units="px"
     showgrid="true"
     inkscape:zoom="32"
     inkscape:cx="5.0625"
     inkscape:cy="5.609375"
     inkscape:window-width="1681"
     inkscape:window-height="1032"
     inkscape:window-x="2100"
     inkscape:window-y="9"
     inkscape:window-maximized="0"
     inkscape:current-layer="layer1"><inkscape:grid
       type="xygrid"
       id="grid16"
       originx="0"
       originy="0"
       empspacing="4" /></sodipodi:namedview><defs
     id="defs2"><linearGradient
       inkscape:collect="always"
       id="linearGradient990"><stop
         style="stop-color:#46aa46;stop-opacity:1;"
         offset="0"
         id="stop986" /><stop
         style="stop-color:#48d648;stop-opacity:1;"
         offset="1"
         id="stop988" /></linearGradient><linearGradient
       inkscape:collect="always"
       id="linearGradient2627"><stop
         style="stop-color:#719e08;stop-opacity:1;"
         offset="0"
         id="stop2623" /><stop
         style="stop-color:#a9e619;stop-opacity:1;"
         offset="1"
         id="stop2625" /></linearGradient><linearGradient
       inkscape:collect="always"
       xlink:href="#linearGradient2627"
       id="linearGradient2629"
       x1="5.0286884"
       y1="4.6120791"
       x2="12.402881"
       y2="11.174579"
       gradientUnits="userSpaceOnUse"
       gradientTransform="matrix(1.184325,0,0,1.1843456,-1.1245745,-1.2423191)" /><linearGradient
       inkscape:collect="always"
       xlink:href="#linearGradient990"
       id="linearGradient992"
       x1="0.991767"
       y1="12.618856"
       x2="14.417136"
       y2="12.618856"
       gradientUnits="userSpaceOnUse"
       gradientTransform="matrix(1.0330256,0,0,1.0330436,0.04110426,0.69818922)" /></defs><g
     inkscape:label="Vector"
     inkscape:groupmode="layer"
     id="layer1"
     style="display:inline"><rect
       style="display:inline;fill:#ffffff;stroke:#ffffff;stroke-linecap:round;stroke-opacity:1;paint-order:fill markers stroke"
       id="Bottom"
       width="15"
       height="15"
       x="0.5"
       y="0.5"
       ry="7.5"
       inkscape:highlight-color="#656565"
       inkscape:label="Bottom" /><path
       style="display:inline;fill:url(#linearGradient992);fill-opacity:1;stroke:none;stroke-width:0.103304;stroke-linejoin:round;stroke-dasharray:none;stroke-dashoffset:1;stroke-opacity:1;paint-order:fill markers stroke"
       d="m 2.7035623,12.098818 c -0.1202961,0.268555 0.4148975,0.515005 0.5250177,0.930321 -0.3235901,0.312592 -1.546637,0.375858 -1.6379373,0.582095 -0.0913,0.206237 0.8553761,0.957581 0.7705167,1.124352 -0.084859,0.166772 -0.9032878,0.282348 -1.2955344,0.633567 1.9931598,0.0088 12.914174,-0.01601 13.86875,-0.02853 -0.0041,-0.286448 -12.0365637,-3.327513 -12.2308127,-3.241802 z"
       id="Ground"
       sodipodi:nodetypes="cczzccc"
       inkscape:label="Ground"
       inkscape:highlight-color="#918500" /><path
       id="Tree"
       style="fill:url(#linearGradient2629);fill-opacity:1;stroke:none;stroke-width:0.118434;stroke-linejoin:round;stroke-dasharray:none;stroke-dashoffset:1;stroke-opacity:0.32342;paint-order:fill markers stroke"
       d="M 8.2505607,0.42085375 C 7.9756914,0.49958668 4.068413,8.0011282 4.068413,8.0011282 c 0,0 -0.610101,0.7797812 -0.3238388,0.9599677 0.2862627,0.1801859 0.7309505,-0.7078317 0.7309505,-0.7078317 0,0 0.8054344,-1.237614 1.1889514,-1.6377279 C 5.4194032,7.7926388 4.8384103,8.510004 5.0353034,8.6094933 5.2321959,8.7089824 5.7037535,7.9828142 6.0230119,7.8762168 5.8165409,8.7753802 4.745918,10.417776 5.0468691,10.568752 5.3478202,10.719729 6.4391923,8.7875138 6.7238917,8.5239058 6.8028715,8.7631776 5.8514787,10.74265 5.9674966,10.832454 6.083515,10.922262 6.8256697,10.240282 6.8256697,10.240282 l -0.2174346,2.195203 3.0857217,0.76566 0.032384,-1.424915 c 0,0 3.1191692,0.608746 3.6293082,0.06477 0.05758,-0.333854 0.176244,-1.099658 -0.09715,-1.556766 0.27614,-0.3682107 0.560548,-0.3191743 0.740203,-0.8142381 0.179654,-0.4950638 -0.704505,-1.5727823 -1.080233,-2.0749179 0.02834,-0.388994 -0.02545,-1.4711795 -0.02544,-1.4711795 0,0 -4.3137743,-5.50935007 -4.6355229,-5.50304319 -0.00171,-3.0793e-4 -0.00477,-6.2001e-4 -0.00694,0 z M 8.5882784,2.3777997 c 0,0 0.9009182,0.6342898 1.6654566,1.6492939 0.0049,0.4250471 0,0.6291835 0,0.6291836 0,0 -1.0557207,0.9925771 -1.6006888,-0.4510691 C 8.6172097,3.699027 8.5882778,2.3777997 8.5882784,2.3777997 Z m 2.2391146,2.7202938 c 0.503092,0.1034811 0.722528,1.0506378 0.719385,1.4573004 C 11.275391,6.9358858 11.059157,6.9823798 10.885221,7.1614456 10.4365,7.1965739 9.5028394,7.4876413 9.1711884,7.6564652 8.9703873,6.9224062 8.9375617,5.4936465 8.9375618,5.4936465 c 0,0 1.4521632,-0.3420103 1.8898312,-0.395553 z m 0.06477,2.4473393 c 0.06655,-2.025e-4 0.129367,0.00407 0.18505,0.011571 0.495829,0.1125744 1.080074,0.4549379 1.177387,0.6546286 C 12.077124,10.138573 9.5135323,9.9904587 9.5135323,9.9904587 L 9.1735015,7.87853 c 0,0 1.0029425,-0.3076362 1.6515785,-0.3307841 0.02317,-8.267e-4 0.0449,-0.00225 0.06708,-0.00231 z m 0.596789,2.8984082 c 0.274496,-0.0035 0.516293,-0.0042 0.668496,0 0.340569,0.239177 0.228833,0.646993 -0.124909,0.916017 -0.9164,7.76e-4 -2.5051254,-0.268329 -2.5051254,-0.268329 l 0.00694,-0.603738 c 0,0 1.1311094,-0.03342 1.9545994,-0.04395 z"
       inkscape:label="Tree"
       inkscape:highlight-color="#3bed00" /></g><metadata
     id="metadata2474"><rdf:RDF><cc:Work
         rdf:about=""><dc:title>3D Forest Icon</dc:title><dc:creator><cc:Agent><dc:title>Vaclav Bubnik Copyright 2020-present VUKOZ Licence GNU GPL version 3 www.gnu.org/licenses/gpl-3.0.html</dc:title></cc:Agent></dc:creator><dc:date>30 May 2022</dc:date></cc:Work></rdf:RDF></metadata></svg>
